<?xml version="1.0" encoding="UTF-8" standalone="no"?>
<!DOCTYPE svg PUBLIC "-//W3C//DTD SVG 1.1//EN" "http://www.w3.org/Graphics/SVG/1.1/DTD/svg11.dtd">
<!-- Created with Vectornator (http://vectornator.io/) -->
<svg height="100%" stroke-miterlimit="10" style="fill-rule:nonzero;clip-rule:evenodd;stroke-linecap:round;stroke-linejoin:round;" version="1.1" viewBox="0 0 500 500" width="100%" xml:space="preserve" xmlns="http://www.w3.org/2000/svg" xmlns:vectornator="http://vectornator.io" xmlns:xlink="http://www.w3.org/1999/xlink">
<defs/>
<g id="Camada-3" vectornator:layerName="Camada 3">
<path d="M75.6444 300.418L193.986 300.418L193.986 330.534L75.6444 330.534L75.6444 300.418Z" fill="#ab0000" fill-rule="nonzero" opacity="1" stroke="none"/>
<path d="M208.414 241.573L238.005 241.573L238.005 289.355L208.414 289.355L208.414 241.573Z" fill="#ab0000" fill-rule="nonzero" opacity="1" stroke="none"/>
<path d="M413.95 273.989L413.95 273.989C417.78 273.989 420.885 277.127 420.885 280.998L420.885 323.073C420.885 326.945 417.78 330.083 413.95 330.083L413.95 330.083C410.12 330.083 407.015 326.945 407.015 323.073L407.015 280.998C407.015 277.127 410.12 273.989 413.95 273.989Z" fill="#ab0000" fill-rule="nonzero" opacity="0.993428" stroke="none"/>
<path d="M362.728 274.074L376.89 274.074L376.89 330.221L362.728 330.221L362.728 274.074Z" fill="#ab0000" fill-rule="nonzero" opacity="1" stroke="none"/>
<path d="M250.218 201.033L299.175 201.033L299.175 230.741L250.218 230.741L250.218 201.033Z" fill="#ab0000" fill-rule="nonzero" opacity="1" stroke="none"/>
<path d="M407.06 274.056L444.055 274.056L444.055 288.006L407.06 288.006L407.06 281.101L407.06 274.056Z" fill="#ab0000" fill-rule="nonzero" opacity="1" stroke="none"/>
<path d="M407.187 294.81L444.34 294.81L444.34 308.86L407.187 308.86L407.187 294.81Z" fill="#ab0000" fill-rule="nonzero" opacity="1" stroke="none"/>
<path d="M407.012 316.773L444.344 316.773L444.344 330.07L407.012 330.07L407.012 316.773Z" fill="#ab0000" fill-rule="nonzero" opacity="1" stroke="none"/>
<path d="M284.318 215.898C284.318 207.7 290.872 201.054 298.956 201.054C307.041 201.054 313.595 207.7 313.595 215.898C313.595 224.097 307.041 230.743 298.956 230.743C290.872 230.743 284.318 224.097 284.318 215.898Z" fill="#ab0000" fill-rule="nonzero" opacity="1" stroke="none"/>
<path d="M61.934 315.542C61.934 307.232 68.4481 300.495 76.4836 300.495C84.5191 300.495 91.0332 307.232 91.0332 315.542C91.0332 323.852 84.5191 330.588 76.4836 330.588C68.4481 330.588 61.934 323.852 61.934 315.542Z" fill="#ab0000" fill-rule="nonzero" opacity="1" stroke="none"/>
<path d="M192.753 328.735C191.949 329.539 196.598 329.216 197.989 329.09C201.876 328.736 205.599 327.352 209.15 325.85C220.009 321.255 228.643 313.269 233.453 302.447C234.037 301.131 238.042 288.539 236.153 287.595" fill="none" opacity="1" stroke="#ab0000" stroke-linecap="round" stroke-linejoin="round" stroke-width="2.58215"/>
<path d="M209.655 284.046C210.717 287.836 207.664 292.046 205.425 294.609C201.297 299.336 195.11 301.876 188.948 302.212C186.408 302.351 183.883 301.719 181.336 301.858" fill="none" opacity="1" stroke="#ab0000" stroke-linecap="round" stroke-linejoin="round" stroke-width="2.58215"/>
<path d="M234.843 243.696C234.879 243.946 234.845 243.83 234.94 244.047" fill="none" opacity="1" stroke="#ab0000" stroke-linecap="round" stroke-linejoin="round" stroke-width="2.58215"/>
<path d="M236.774 244.068C235.601 242.236 237.731 238.288 238.756 236.894C242.526 231.772 246.813 229.814 252.764 229.183" fill="none" opacity="1" stroke="#ab0000" stroke-linecap="round" stroke-linejoin="round" stroke-width="2.58215"/>
<path d="M210.034 246.709C209.081 242.785 209.811 237.501 210.528 233.594C213.216 218.934 223.983 207.549 238.489 203.645C243.894 202.191 249.939 202.441 255.51 202.437C258.547 202.435 261.572 202.151 264.591 202.628" fill="none" opacity="1" stroke="#ab0000" stroke-linecap="round" stroke-linejoin="round" stroke-width="2.58215"/>
<path d="M190.237 322.801C191.702 323.081 199.569 320.992 200.033 321.462C200.307 321.739 194.789 322.568 194.898 322.177C194.933 322.054 195.872 322.054 195.928 322.048C197.576 321.857 199.008 321.611 200.604 321.14C204.793 319.905 207.678 319.283 211.432 316.788C220.19 310.968 224.045 307.463 228.761 297.742C229.705 295.798 231.823 291.346 230.394 289.127C227.575 284.75 222.733 291.873 221.01 291.863C220.019 291.858 216.829 289.179 215.847 290.263C214.948 291.257 215.449 293.072 214.782 294.197C213.39 296.547 210.808 299.009 208.748 300.783C205.96 303.184 202.33 305.04 199.182 306.93C197.743 307.793 195.03 307.478 193.865 308.524C192.259 309.968 193.171 312.388 193.929 313.927C194.969 316.035 198.349 316.183 199.321 318.154C200 319.532 200.398 319.941 201.662 320.794C202.109 321.096 202.845 322.351 202.915 321.817C203.999 313.524 210.793 308.089 213.354 300.241C213.764 298.985 216.768 293.693 214.045 292.934" fill="#ab0000" fill-rule="nonzero" opacity="1" stroke="#ab0000" stroke-linecap="round" stroke-linejoin="round" stroke-width="11.8057"/>
<path d="M256.591 211.007C256.031 209.601 252.533 209.54 251.365 209.672C251.095 209.703 250.613 209.942 250.549 209.677C250.466 209.333 252.663 208.908 252.345 209.051C251.587 209.392 250.983 208.645 250.256 208.762C246.36 209.391 239.796 209.512 236.542 211.303C225.727 217.254 219.226 222.067 217.086 234.677C216.729 236.781 215.865 239.565 216.604 241.645C218.251 246.275 222.696 239.947 224.847 239.343C226.678 238.828 227.468 240.225 229.315 239.13C230.669 238.327 231.444 235.657 232.386 234.422C235.098 230.867 237.538 227.737 241.426 225.365C243.693 223.982 250.732 223.504 249.036 220.043C246.978 215.841 243 220.272 240.564 221.991C235.904 225.279 230.051 230.227 228.434 235.977C228.263 236.583 227.514 240.753 228.277 241.303C229.233 241.993 229.381 240.481 230.101 240.791" fill="#ab0000" fill-rule="nonzero" opacity="1" stroke="#ab0000" stroke-linecap="round" stroke-linejoin="round" stroke-width="11.8057"/>
<path d="M272 273.094C255.551 273.094 242.219 286.243 242.219 302.469C242.219 318.694 255.551 331.844 272 331.844C285.985 331.844 297.642 322.319 300.844 309.5L287.5 309.5C284.862 315.411 278.896 319.531 271.938 319.531C262.538 319.531 254.906 312.006 254.906 302.719C254.906 293.431 262.538 285.906 271.938 285.906C277.887 285.906 283.114 288.93 286.156 293.5L300.219 293.5C296.356 281.694 285.255 273.094 272 273.094Z" fill="#ab0000" fill-rule="nonzero" opacity="1" stroke="none"/>
<path d="M331.25 273.594C315.14 273.594 302.062 286.647 302.062 302.75C302.063 318.853 315.14 331.906 331.25 331.906C347.36 331.906 360.406 318.853 360.406 302.75C360.406 286.647 347.36 273.594 331.25 273.594ZM331.312 285.156C340.983 285.156 348.812 292.827 348.812 302.281C348.812 311.736 340.983 319.406 331.312 319.406C321.642 319.406 313.781 311.736 313.781 302.281C313.781 292.827 321.642 285.156 331.312 285.156Z" fill="#ab0000" fill-rule="nonzero" opacity="1" stroke="none"/>
<path d="M375.198 286.042C375.13 285.836 376.962 285.87 377.258 285.87C378.592 285.87 379.927 285.727 381.262 285.727C386.227 285.727 392.273 286.676 392.273 292.964C392.273 303.517 379.741 299.937 373.397 300.571" fill="none" opacity="1" stroke="#ab0000" stroke-linecap="round" stroke-linejoin="round" stroke-width="3.0127"/>
<path d="M401.265 285.682C402.493 287.329 402.562 291.204 402.546 293.154C402.492 299.733 397.563 306.634 391.174 308.595C387.446 309.738 383.628 309.673 379.784 309.704C378.147 309.717 376.307 309.951 374.689 309.715" fill="none" opacity="1" stroke="#ab0000" stroke-linecap="round" stroke-linejoin="round" stroke-width="3.0127"/>
<path d="M373.214 275.61C375.356 275.531 376.022 275.605 377.855 275.509C383.85 275.193 391.558 275.314 396.542 279.052C399.138 280.999 401.262 284.543 401.834 286.819" fill="none" opacity="1" stroke="#ab0000" stroke-linecap="round" stroke-linejoin="round" stroke-width="3.0127"/>
<path d="M377.328 307.276L390.022 302.237L405.957 330.041L390.119 329.942L377.328 307.276Z" fill="#ab0000" fill-rule="nonzero" opacity="1" stroke="none"/>
<path d="M375.933 307.875C375.933 306.197 380.134 308.32 380.263 307.805C380.297 307.667 380.247 307.603 380.123 307.526C378.86 306.737 376.832 306.523 375.864 305.362C375.803 305.289 375.66 304.953 375.794 304.873C376.86 304.233 382.659 306.809 382.916 305.781C383.129 304.927 375.763 304.12 376.003 302.918C376.093 302.467 377.715 302.59 377.958 302.638C378.753 302.797 386.937 304.565 387.105 304.733C387.574 305.202 385.86 304.277 385.22 304.105C383.621 303.674 381.996 304.058 380.472 303.337C380.198 303.207 379.536 303.1 379.704 302.848C379.91 302.539 384.623 303.322 385.08 303.337C386.337 303.377 390.526 301.926 391.504 302.708C392.668 303.639 389.952 307.953 391.784 307.037C392.349 306.754 392.668 305.726 392.971 305.222C394.358 302.91 389.248 303.513 387.804 302.988C387.635 302.926 387.23 302.856 387.175 302.638C386.697 300.724 390.585 301.564 391.225 301.451C392.13 301.292 393.444 299.876 393.948 299.147C395.012 297.61 395.084 295.162 395.205 293.352C395.223 293.085 395.059 291.041 395.345 291.327C397.564 293.547 393.564 299.567 391.853 301.033C390.506 302.187 393.678 296.981 393.948 296.424C395.396 293.442 395.594 291.183 394.367 288.115C393.02 284.748 384.143 282.529 380.821 282.529C380.299 282.529 375.375 282.691 375.375 283.158C375.375 283.507 376.073 283.245 376.422 283.227C379.355 283.081 382.372 282.999 385.29 283.088C388.778 283.193 396.736 287.803 394.995 292.444C394.494 293.78 393.13 289.9 393.04 289.721C391.981 287.602 390.629 285.864 388.641 284.554C387.024 283.488 385.152 282.29 383.265 281.761C380.729 281.051 373.834 282.816 376.911 277.432C377.281 276.784 384.821 276.732 385.709 276.943C386.933 277.235 387.892 278.02 389.06 278.41C396.312 280.827 399.962 280.902 401.629 289.791C402.464 294.244 400.087 300.954 396.741 303.965C396.077 304.563 394.23 306.719 393.18 306.269C392.027 305.775 392.655 301.241 394.926 302.15C399.237 303.874 392.567 306.057 392.971 302.22C393.285 299.228 398.883 299.243 397.928 301.87C397.355 303.446 394.47 301.442 394.297 300.404C393.64 296.463 400.757 297.501 398.766 299.776C397.558 301.156 395.208 298.091 395.624 296.773C396.244 294.81 400.043 294.028 399.464 296.634C399.046 298.517 395.824 295.419 395.624 294.539C394.897 291.342 400.998 291.75 399.604 294.539C399.238 295.271 398.244 295.013 397.719 294.679C393.51 292 397.627 287.826 399.743 289.791C403.786 293.545 393.033 292.858 395.554 288.045C397.894 283.578 402.143 291.298 398.696 290.699C391.702 289.482 396.128 281.364 398.347 284.414C402.075 289.54 393.821 290.087 394.018 283.786C394.035 283.236 394.098 282.45 394.576 282.04C396.225 280.628 399.05 285.959 396.881 286.23C394.979 286.467 391.238 282.64 393.18 281.063C395.522 279.16 398.69 285.604 397.23 286.09C395.26 286.747 389.742 281.205 391.504 279.736C392.426 278.968 395.417 284.504 394.018 284.903C393.131 285.157 387.368 278.778 387.105 277.991C387.058 277.849 387.349 278.165 387.454 278.27C387.921 278.736 388.336 279.25 388.781 279.736C389.288 280.289 390.483 281.315 390.597 282.11C390.701 282.842 389.27 281.451 388.641 281.063C388.168 280.77 383.992 277.632 383.963 277.641C383.548 277.78 384.254 278.482 384.522 278.828C385.869 280.571 387.91 281.029 389.34 282.459C389.954 283.074 387.702 281.877 386.896 281.552C386.31 281.315 380.311 278.443 380.263 278.479C379.929 278.729 380.519 279.31 380.821 279.597C381.829 280.554 384.761 282.375 386.267 281.621C386.51 281.5 385.821 281.303 385.569 281.203C384.059 280.598 384.665 280.911 382.916 280.225C382.045 279.883 378.016 277.317 377.19 278.968C376.346 280.656 380.122 281.762 380.891 280.225C381.068 279.871 376.808 278.48 376.003 279.178C373.879 281.019 378.654 282.539 379.076 281.063C379.192 280.655 376.125 279.171 375.794 279.597C374.379 281.416 377.781 282.224 378.796 281.971" fill="none" opacity="1" stroke="#ab0000" stroke-linecap="round" stroke-linejoin="round" stroke-width="3.0127"/>
</g>
<g id="Camada-2" vectornator:layerName="Camada 2">
<path d="M66.4028 140.834L96.2058 140.834L96.2058 286.836L66.4028 286.836L66.4028 140.834Z" fill="#000000" fill-rule="nonzero" opacity="1" stroke="none"/>
<path d="M143.532 141.187L143.987 141.187L143.987 141.447L143.532 141.447L143.532 141.187Z" fill="#000000" fill-rule="nonzero" opacity="1" stroke="none"/>
<path d="M66.4485 140.927L143.922 140.927L143.922 168.94L66.4485 168.94L66.4485 140.927Z" fill="#000000" fill-rule="nonzero" opacity="1" stroke="none"/>
<path d="M87.3635 195.196L232.094 195.196L232.094 223.108L87.3635 223.108L87.3635 195.196Z" fill="#000000" fill-rule="nonzero" opacity="1" stroke="none"/>
<path d="M147.143 141.045L178.082 141.045L178.082 287.449L147.143 287.449L147.143 141.045Z" fill="#000000" fill-rule="nonzero" opacity="1" stroke="none"/>
<path d="M156.491 141.064L224.979 141.064L224.979 169.023L156.491 169.023L156.491 141.064Z" fill="#000000" fill-rule="nonzero" opacity="1" stroke="none"/>
</g>
</svg>
